<svg id="Capa_1" enable-background="new 0 0 512 512" height="512" viewBox="0 0 512 512" width="512" xmlns="http://www.w3.org/2000/svg"><g><g><g fill="#ffe6b3"><path d="m130 346h372v60h-372z"/><path d="m130 226h372v60h-372z"/><path d="m130 106h372v60h-372z"/></g><path d="m10 346h60v60h-60z" fill="#ffcd69"/><path d="m10 226h60v60h-60z" fill="#ffcd69"/><path d="m10 106h60v60h-60z" fill="#ffcd69"/></g><g><g fill="#ffa96b"><path d="m512 346c0-5.523-4.478-10-10-10h-372c-5.522 0-10 4.477-10 10v60c0 5.523 4.478 10 10 10h372c5.522 0 10-4.477 10-10zm-20 50h-352v-40h352z"/><path d="m10 416h60c5.522 0 10-4.477 10-10v-60c0-5.523-4.478-10-10-10h-60c-5.522 0-10 4.477-10 10v60c0 5.523 4.478 10 10 10zm10-60h40v40h-40z"/><path d="m512 226c0-5.523-4.478-10-10-10h-372c-5.522 0-10 4.477-10 10v60c0 5.523 4.478 10 10 10h372c5.522 0 10-4.477 10-10zm-20 50h-352v-40h352z"/><path d="m10 296h60c5.522 0 10-4.477 10-10v-60c0-5.523-4.478-10-10-10h-60c-5.522 0-10 4.477-10 10v60c0 5.523 4.478 10 10 10zm10-60h40v40h-40z"/><path d="m512 106c0-5.523-4.478-10-10-10h-372c-5.522 0-10 4.477-10 10v60c0 5.523 4.478 10 10 10h372c5.522 0 10-4.477 10-10zm-20 50h-352v-40h352z"/><path d="m10 176h60c5.522 0 10-4.477 10-10v-60c0-5.523-4.478-10-10-10h-60c-5.522 0-10 4.477-10 10v60c0 5.523 4.478 10 10 10zm10-60h40v40h-40z"/></g></g></g></svg>